<svg width="1440" height="610" viewBox="0 0 1440 610" fill="none" xmlns="http://www.w3.org/2000/svg">
<path opacity="0.07" d="M1301.72 33.5647C1337.58 71.4187 1338.7 116.034 1314.72 162.722C1290.74 209.41 1179.27 241.634 1166.27 206.634C1137.43 128.988 1205.29 152.322 1229.27 105.634C1253.25 58.9462 1260.24 -10.2135 1301.72 33.5647Z" fill="#7958D8"/>
<path opacity="0.06" fill-rule="evenodd" clip-rule="evenodd" d="M1330.97 101.133C1330.87 120.341 1325.19 140.334 1314.72 160.722C1290.74 207.41 1179.27 239.634 1166.27 204.634C1161.47 191.69 1159.34 181.552 1159.26 173.428C1159.17 181.716 1161.27 192.153 1166.27 205.634C1179.27 240.634 1290.74 208.41 1314.72 161.722C1325.37 140.98 1331.07 120.646 1330.97 101.133Z" fill="#7958D8"/>
<path d="M261.187 446.914C289.392 403.053 332.454 391.328 383.514 403.477C434.575 415.627 468.617 467.243 454.111 517.331C431.071 596.891 390.862 599.337 339.801 587.187C288.741 575.038 228.569 497.639 261.187 446.914Z" fill="#F6F3FC"/>
<path fill-rule="evenodd" clip-rule="evenodd" d="M383.514 403.477C332.453 391.328 289.392 403.054 261.187 446.914C251.458 462.045 249.984 479.548 254.062 496.986C249.409 478.909 250.619 460.664 260.71 444.972C288.915 401.111 331.976 389.386 383.037 401.535C419.227 410.146 446.868 438.584 454.734 472.251C446.276 439.436 419.006 411.923 383.514 403.477Z" fill="#F1EDFC"/>
<path opacity="0.07" d="M829.87 425.863C757.417 380.856 677.419 290.558 695.983 206.74C714.548 122.922 899.439 59.7237 981.727 82.1663C1112.43 117.814 1075.84 209.888 1057.27 293.706C1038.71 377.524 913.662 477.912 829.87 425.863Z" fill="#7958D8"/>
<path opacity="0.07" fill-rule="evenodd" clip-rule="evenodd" d="M775.235 122.703C840.793 87.249 929.475 68.9505 979.792 82.6737C1098.14 114.952 1079.33 193.492 1060.93 270.277C1059.01 278.293 1057.09 286.29 1055.34 294.213C1045 340.87 1001.68 392.66 950.839 420.436C1002.08 392.787 1045.87 340.648 1056.27 293.706C1058.03 285.783 1059.94 277.786 1061.86 269.769C1080.26 192.985 1099.08 114.444 980.727 82.1663C930.17 68.3777 840.883 86.9164 775.235 122.703Z" fill="#7958D8"/>
<path opacity="0.07" d="M1274.94 332.917C1308.54 293.034 1333.11 318.771 1382.19 337.365C1431.27 355.96 1478.06 379.667 1457.25 427.483C1424.2 503.433 1384.01 500.705 1334.93 482.11C1285.85 463.516 1236.09 379.042 1274.94 332.917Z" fill="#7958D8"/>
<path opacity="0.04" fill-rule="evenodd" clip-rule="evenodd" d="M1312.83 311.891C1300.22 311.58 1288.3 317.065 1274.94 332.917C1236.09 379.042 1285.85 463.516 1334.93 482.11C1352.35 488.711 1368.65 493.313 1383.92 493.105C1369.23 492.908 1353.59 488.424 1336.93 482.11C1287.85 463.516 1238.09 379.042 1276.94 332.917C1289.59 317.906 1300.95 312.191 1312.83 311.891Z" fill="#7958D8"/>
<path d="M128.434 49.3839C183.896 30.5194 180.873 72.0462 217.292 118.419C253.71 164.792 329.811 221.492 248.903 246.155C159.895 273.288 135.958 274.077 99.54 227.704C63.1215 181.332 64.2924 71.2009 128.434 49.3839Z" fill="#F6F3FC"/>
<path fill-rule="evenodd" clip-rule="evenodd" d="M162.259 264.895C182.881 265.007 209.523 258.159 248.903 246.155C314.317 226.215 277.099 185.333 241.199 145.899C232.695 136.559 224.266 127.299 217.292 118.419C206.925 105.219 199.754 92.411 193.52 81.2771C181.47 59.7535 172.921 44.4853 151.557 44.7289C172.191 44.9678 180.659 60.0925 192.52 81.2771C198.754 92.411 205.925 105.219 216.292 118.419C223.266 127.299 231.695 136.559 240.199 145.899C276.099 185.333 313.317 226.215 247.903 246.155C209.157 257.966 182.741 264.786 162.259 264.895Z" fill="#F1EDFC"/>
<path opacity="0.07" d="M1071.89 411.622C1095.32 406.262 1113.28 416.276 1126.19 436.732C1139.09 457.189 1146.81 490.335 1112.76 496.988C1075.29 504.307 1065.49 503.62 1052.59 483.164C1039.68 462.708 1044.8 417.82 1071.89 411.622Z" fill="#7958D8"/>
<path opacity="0.05" fill-rule="evenodd" clip-rule="evenodd" d="M1080.04 501.229C1087.88 501.299 1097.93 499.689 1111.76 496.988C1145.81 490.335 1138.09 457.189 1125.19 436.732C1114.5 419.789 1100.34 410.009 1082.48 410.196C1099.87 410.378 1113.7 420.106 1124.19 436.732C1137.09 457.189 1144.81 490.335 1110.76 496.988C1097.51 499.575 1087.73 501.162 1080.04 501.229Z" fill="#7958D8"/>
<path d="M389.886 173.046C395.675 149.724 412.718 138.212 436.797 135.928C460.876 133.644 493.936 141.719 484.505 175.109C474.13 211.842 471.282 236.758 447.204 239.042C423.125 241.326 383.191 200.019 389.886 173.046Z" fill="#F6F3FC"/>
<path fill-rule="evenodd" clip-rule="evenodd" d="M436.797 135.928C412.718 138.212 395.675 149.724 389.886 173.046C384.889 193.179 405.868 221.297 426.843 233.314C406.161 221.03 385.821 193.406 390.75 173.55C396.539 150.228 413.582 138.716 437.661 136.432C449.514 135.308 463.544 136.694 473.609 142.374C463.494 136.272 448.993 134.771 436.797 135.928Z" fill="#F1EDFC"/>
<path d="M-17.1589 384.352C-16.0171 370.018 -7.07831 361.558 6.91475 357.86C20.9078 354.162 41.2139 355.703 38.9045 376.336C36.3639 399.035 34.214 404.507 20.2209 408.205C6.22785 411.904 -18.4794 400.93 -17.1589 384.352Z" fill="#F6F3FC"/>
<path fill-rule="evenodd" clip-rule="evenodd" d="M-17.2019 385.125C-17.7098 401.269 6.44652 411.846 20.2209 408.205C34.2139 404.507 36.3638 399.035 38.9045 376.336C39.0472 375.061 39.1036 373.859 39.0804 372.726C39.0637 373.56 39.0059 374.43 38.9045 375.336C36.3638 398.035 34.2139 403.507 20.2209 407.205C6.733 410.77 -16.7095 400.703 -17.2019 385.125Z" fill="#F1EDFC"/>
<path opacity="0.07" d="M746.841 556.618C747.983 542.283 756.922 533.824 770.915 530.126C784.908 526.427 805.214 527.968 802.905 548.602C800.364 571.301 798.214 576.773 784.221 580.471C770.228 584.169 745.521 573.195 746.841 556.618Z" fill="#7958D8"/>
</svg>
