<svg width="205" height="197" viewBox="0 0 205 197" fill="none" xmlns="http://www.w3.org/2000/svg">
<path fill-rule="evenodd" clip-rule="evenodd" d="M58.6775 209.003C120.243 210.682 166.882 186.863 188.732 129.707C199.104 102.576 189.424 76.2344 170.148 54.4881C142.013 29.3697 101.669 12.594 69.8981 11.7274C8.3323 10.0482 -31.2191 9.51333 -38.5559 106.43C-40.6982 134.729 -30.7667 160.896 -13.3578 180.987C5.98071 197.765 31.3373 208.257 58.6775 209.003Z" fill="#549DCD"/>
<path fill-rule="evenodd" clip-rule="evenodd" d="M58.7423 208.885C120.308 210.564 166.947 186.745 188.797 129.589C199.169 102.458 189.489 76.1163 170.213 54.37C196.599 77.9262 212.247 108.82 200.018 140.809C178.167 197.965 131.529 221.785 69.963 220.105C36.952 219.205 6.83286 204.096 -13.2929 180.869C6.04561 197.647 31.4022 208.139 58.7423 208.885ZM-13.2929 180.869C-37.5016 159.866 -52.2794 129.011 -49.7116 95.091C-42.3749 -1.82542 -2.82347 -1.29052 58.7423 0.388678C95.0391 1.37867 142.525 23.1334 170.213 54.37C142.078 29.2516 101.734 12.4759 69.963 11.6093C8.39716 9.93011 -31.1542 9.39521 -38.491 106.312C-40.6333 134.611 -30.7018 160.778 -13.2929 180.869Z" fill="#85C1E8"/>
</svg>
